<svg xmlns="http://www.w3.org/2000/svg" width="857.93964mm" height="200mm" viewBox="0 0 857.93964 200"><defs><clipPath id="a" clipPathUnits="userSpaceOnUse"><path d="M0 595.275h841.89V0H0Z"/></clipPath></defs><g clip-path="url(#a)" transform="matrix(1.1055 0 0 -1.1055 -36.386 429.04)"><path d="M0 0c-6.153-.083-7.587-5.835-5.273-12.102 6.503-18.383 18.492-16.311 19.574-9.245.369 3.594-.128 7.033-1.008 10.569C11.192-2.424 3.474 0 0 0" style="fill:#c4161d;fill-opacity:1;fill-rule:nonzero;stroke:none" transform="translate(98.892 233.644)"/><path d="M0 0c-1.909-1.654-5.462-1.328-5.845 2.453-.295 4.055 3.738 4.856 3.936 8.215.625 8.304-4.147 7.499-4.147 7.499-7.265-.419-12.063-8.589-10.484-19.495 2.731-19.328 24.002-29.701 24.002-29.701C-1.196-15.217 0 0 0 0" style="fill:#c4161d;fill-opacity:1;fill-rule:nonzero;stroke:none" transform="translate(119.697 261.75)"/><path d="M0 0c-1.074-15.216 6.936-30.779 10.167-35.734 2.81-4.302 6.342-7.151 9.459-8.194 6.052-1.97 12.561 1.641 11.856 8.008-.791 4.987-6.635 9.517-13.408 13.992C5.484-13.554 0 0 0 0" style="fill:#c4161d;fill-opacity:1;fill-rule:nonzero;stroke:none" transform="translate(128.114 260.422)"/><path d="M0 0c0 20.642 2.445 17.696 8.175 44.285C14.138 71.752-4.107 86.678-4.107 86.678c6.178-10.606 6.138-22.76 6.138-22.76C2.661 45.107-11.9 20.845-11.9 20.845c-12.441-23.361-7.498-47.771-7.498-47.771 4.354-24.2 16.751-31.663 22.379-32.885 7.881-1.606 11.197 4.928 11.197 4.928 4.403 8.339-3.399 19.628-3.399 19.628C0-19.393 0 0 0 0" style="fill:#c4161d;fill-opacity:1;fill-rule:nonzero;stroke:none" transform="translate(153.497 301.416)"/><path d="M0 0s-19.327-17.2-19.274-48.88c0 0-1.126-22.882 13.342-41.391 0 0 .836-.575 1.037.747 0 0-14.349 28.357 1.038 46.115 0 0-1.038-9.693 2.696-17.037 0 0 9.363 10.154 7.134 24.836 0 0-1.408 8.42-5.023 14.98C-.949-17.2-3.442-9.944 0 0" style="fill:#c4161d;fill-opacity:1;fill-rule:nonzero;stroke:none" transform="translate(180.283 369.022)"/><path d="M0 0s4.771-17.507-1.733-33.721c-2.041-5.102-5.841-14.438-3.448-28.145 0 0 1.666-13.317-.66-20.194 0 0 7.42 6.913 9.997 16.415-.714-17.343-9.13-36.618-20.15-46.953 0 0-.924-1.6.536-2.277 0 0 16.082 10.772 26.083 34.504 0 0 5.725 13.474 5.514 26.192 0 0 .075 6.446-1.157 11.292-.703 2.999-2.211 11.03-1.627 17.364 0 0-2.243-2.152-3.478-6.361 0 0-2.274 21.795-9.877 31.884" style="fill:#c4161d;fill-opacity:1;fill-rule:nonzero;stroke:none" transform="translate(188.78 349.8)"/><path d="M0 0c.378.535-.241 1.861-.668 2.646-.73 1.706-1.851 1.128-1.851 1.128l-.924-.46c-.25.029-.453.217-.65.261-.915-.232-1.667.777-2.617.702-1.117-.348-1.663.653-2.687.572-.928 1.282-2.366 1.37-3.949 1.651-.418 1.388-1.786-.104-2.405.838-1.905.079-3.893.469-5.802.2l-.215.269c-1.825-.179-3.228.931-4.886 1.173-1.244.627-2.995.412-4.485.662-.827-.662-1.962-.035-2.731-.266-1.166.097-2.661-.276-3.743-.581-1.147.678-2.441 0-3.812.581l-1.487-.211c-1.456.033-2.74 1.064-4.072.13-.998.266-2.23.081-2.977-.67-1.205-.042-2.199-.958-3.404-.538-1.038-.459-2.498-.267-3.439-.927-1.654 0-3.113-.827-4.57-1.392-1.31-1.416-3.148.044-4.146-1.766-2.186-.31-3.937-.688-5.18-2.386-1.24.363-2.023-.877-2.982-.877-.876-.798-2.036-1.117-3.069-1.539-.423-.779-1.285-1.027-1.949-1.617-.989-.081-1.579-1.059-2.529-1.288-.215-.756-1.125-.363-1.451-1.082-.255-.701-1.323-1.215-1.456-2.016-1.068-.171-1.534-1.623-2.33-2.384-.365-.307-1.073-.448-1.073-1.015-1.034-.251-.818-1.574-1.653-2.124-1.579-.777-2.437-2.074-4.024-2.689-.37-.379-.159-1.049-.774-1.254-.718-1.163-1.302-2.233-2.081-3.391-.835-.744-2.075-.937-2.704-1.864-1.447-.823-1.698-2.704-3.066-3.596-.536-1.562-1.904-2.051-2.44-3.623-1.245-.237-1.042-1.675-1.456-2.489-.625-.545-.207-1.41-.959-1.675 0-.816-.242-1.504-.628-2.053 0-.742-.273-1.349-.445-1.986-.25-.67.541-1.19 0-1.837.783-2.165-1.618-3.263-2.524-4.71-1.205-.504-2.04-1.969-2.203-3.171-.787-.791.536-1.828-.418-2.427.334-1.033-.62-1.085-.294-2.199 0-.795.496-1.441 1.038-1.865 1.332-1.499-.493-3.157-.326-4.837-.611-.071-.497-.748-1.038-.849-2.898-.69-.871-4.229-2.823-5.817.132-.712-.695-1.461 0-2.054-.286-2.485 1.033-4.692.795-7.385.774-1.916-.453-3.701.458-5.646 0-.536.207-.913.497-1.116.202-1.539-.29-3.315.071-4.97 1.13-2.004.294-4.793 2.04-6.547.774-2.416-.418-4.984 1.447-6.865.136-1.109.954-2.199.954-3.439.624-.335.26-1.021.831-1.204.493-1.241 1.038-2.402 1.447-3.536l1.341-.756c-.052-.669.493-1.514-.22-2.025 1.003-1.151 1.711-2.383 2.529-3.675.294-.853-.114-1.557-.572-2.084v-.818c6.593-9.545 15.177-17.599 25.05-23.718 1.737-.39 3.676-.163 4.521-2.001.29-.449.703-.193 1.011-.369 0 0 .101-.052.101-.08 0-.06.128-.06.128-.184 0 0 .035 0 .035-.018 1.051-.792 2.243-1.53 2.484-1.644l.093-.096c2.862-1.492 4.423-.119 4.423-.119.629.946-.285 2.089-1.441 2.888-8.343 7.235-11.945 13.322-13.392 16.676-.413 1.171-.831 2.244-1.033 2.816v.052-.052.246c-.594 2.005.202 2.031.202 2.031 6.724-6.721 10.079-7.326 10.079-7.326 1.778-.373 1.162.989 1.162.989-6.267 11.667-6.483 20.63-6.483 20.63-.901 21.245 12.366 29.824 12.366 29.824-11.117-22.093 3.563-46.342 6.478-50.784.287-.457.409-.659.409-.659.832-.885 1.245.414 1.245.414-.334.659-.62 1.388-.958 2.031-6.047 14.764.58 29.979.58 29.979 1.491 3.105 4.53 12.546 4.53 12.546 6.129 14.794-.497 40.207-.497 40.207 16.209-15.668 11.517-44.293 11.517-44.293 1.649 2.485 3.066 3.215 4.692 3.686 2.274.748 5.216-.33 5.216-.33-1.614 12.863 4.446 26.174 4.446 26.174 5.633 11.606 5.928 22.144 5.928 22.144.703 14.751-4.688 20.188-4.688 20.188-.792.904-.202.944-.202.944 12.357-7.01 13.179-26.236 13.179-26.236C6.39-21.984 0 0 0 0" style="fill:#c4161d;fill-opacity:1;fill-rule:nonzero;stroke:none" transform="translate(149.552 372.768)"/><path d="M0 0c-1.247 2.159-2.745 3.403-5.406 3.403-2.785 0-5.196-1.992-5.196-4.864 0-2.699 2.785-3.949 4.907-4.902l2.078-.915c4.074-1.785 7.523-3.823 7.523-8.813 0-5.484-4.405-9.688-9.852-9.688-5.029 0-8.772 3.245-9.769 8.109l3.41.958c.457-3.201 2.909-5.822 6.275-5.822 3.369 0 6.446 2.578 6.446 6.113 0 3.659-2.87 4.902-5.779 6.234l-1.914.828c-3.658 1.663-6.815 3.536-6.815 8.026 0 4.863 4.113 7.981 8.77 7.981 3.492 0 6.443-1.784 8.108-4.864z" style="fill:#231f20;fill-opacity:1;fill-rule:nonzero;stroke:none" transform="translate(243.938 262.384)"/><path d="M0 0h16.254v-3.242H3.491v-9.313h12.388v-3.242H3.491v-12.305h12.763v-3.241H0Z" style="fill:#231f20;fill-opacity:1;fill-rule:nonzero;stroke:none" transform="translate(252.963 268.492)"/><path d="M0 0c0-7.072 5.736-12.974 12.846-12.974 7.108 0 12.845 5.902 12.845 12.974 0 7.106-5.655 12.964-12.845 12.964C5.652 12.964 0 7.106 0 0m29.182-.044c0-9.024-7.4-16.175-16.336-16.175-8.94 0-16.34 7.151-16.34 16.175 0 8.979 7.4 16.253 16.34 16.253 8.936 0 16.336-7.274 16.336-16.253" style="fill:#231f20;fill-opacity:1;fill-rule:nonzero;stroke:none" transform="translate(276.245 252.823)"/><path d="M0 0c0-2.321-.084-4.987 1.373-6.983 1.372-1.909 4.033-2.991 6.319-2.991 2.244 0 4.697 1.037 6.152 2.788C15.506-5.192 15.383-2.45 15.383 0v18.669h3.492V-.95c0-3.412-.251-6.112-2.745-8.69-2.161-2.33-5.279-3.579-8.438-3.579-2.952 0-5.987 1.125-8.108 3.202C-3.159-7.396-3.491-4.529-3.491-.95v19.619H0Z" style="fill:#231f20;fill-opacity:1;fill-rule:nonzero;stroke:none" transform="translate(312.74 249.823)"/><path d="M0 0h8.648v-3.241H-3.491v31.343H0Z" style="fill:#231f20;fill-opacity:1;fill-rule:nonzero;stroke:none" transform="translate(341.3 240.39)"/><path d="M372.27 237.149h-3.492v31.343h3.492z" style="fill:#231f20;fill-opacity:1;fill-rule:nonzero;stroke:none"/><path d="m0 0 24.444-25.612v24.28h3.493V-34.09L3.494-8.522v-24.153H0Z" style="fill:#231f20;fill-opacity:1;fill-rule:nonzero;stroke:none" transform="translate(378.67 269.824)"/><path d="M0 0c-1.247 2.159-2.745 3.403-5.404 3.403-2.786 0-5.197-1.992-5.197-4.864 0-2.699 2.784-3.949 4.906-4.902l2.078-.915c4.074-1.785 7.523-3.823 7.523-8.813 0-5.484-4.406-9.688-9.852-9.688-5.029 0-8.771 3.245-9.769 8.109l3.409.958c.459-3.201 2.91-5.822 6.276-5.822 3.369 0 6.445 2.578 6.445 6.113 0 3.659-2.869 4.902-5.778 6.234l-1.914.828c-3.659 1.663-6.816 3.536-6.816 8.026 0 4.863 4.114 7.981 8.771 7.981 3.492 0 6.442-1.784 8.108-4.864z" style="fill:#231f20;fill-opacity:1;fill-rule:nonzero;stroke:none" transform="translate(427.509 262.384)"/><path d="M0 0h-3.489v28.101h-7.565v3.242H7.651v-3.242H0Z" style="fill:#231f20;fill-opacity:1;fill-rule:nonzero;stroke:none" transform="translate(444.864 237.15)"/><path d="M460.916 237.149h-3.493v31.343h3.493z" style="fill:#231f20;fill-opacity:1;fill-rule:nonzero;stroke:none"/><path d="M0 0h-3.493v28.101h-7.563v3.242H7.65v-3.242H0Z" style="fill:#231f20;fill-opacity:1;fill-rule:nonzero;stroke:none" transform="translate(477.662 237.15)"/><path d="M0 0c0-2.321-.079-4.987 1.371-6.983 1.372-1.909 4.037-2.991 6.324-2.991 2.243 0 4.697 1.037 6.148 2.788 1.671 1.994 1.54 4.736 1.54 7.186v18.669h3.491V-.95c0-3.412-.247-6.112-2.743-8.69-2.156-2.33-5.278-3.579-8.436-3.579-2.955 0-5.99 1.125-8.109 3.202C-3.157-7.396-3.492-4.529-3.492-.95v19.619H0Z" style="fill:#231f20;fill-opacity:1;fill-rule:nonzero;stroke:none" transform="translate(491.462 249.823)"/><path d="M0 0h-3.492v28.101h-7.564v3.242H7.652v-3.242H0Z" style="fill:#231f20;fill-opacity:1;fill-rule:nonzero;stroke:none" transform="translate(524.013 237.15)"/><path d="M0 0h16.255v-3.242H3.493v-9.313h12.392v-3.242H3.493v-12.305h12.762v-3.241H0Z" style="fill:#231f20;fill-opacity:1;fill-rule:nonzero;stroke:none" transform="translate(534.408 268.492)"/><path d="M0 0c0-7.072 5.743-12.974 12.85-12.974 7.106 0 12.84 5.902 12.84 12.974 0 7.106-5.646 12.964-12.84 12.964C5.655 12.964 0 7.106 0 0m29.183-.044c0-9.024-7.397-16.175-16.333-16.175-8.937 0-16.342 7.151-16.342 16.175 0 8.979 7.405 16.253 16.342 16.253 8.936 0 16.333-7.274 16.333-16.253" style="fill:#231f20;fill-opacity:1;fill-rule:nonzero;stroke:none" transform="translate(570.496 252.823)"/><path d="M0 0v-9.313h10.431v-3.242H0v-15.546h-3.492V3.242h14.257V0Z" style="fill:#231f20;fill-opacity:1;fill-rule:nonzero;stroke:none" transform="translate(607.912 265.25)"/><path d="M0 0h-3.491v28.101h-7.565v3.242H7.652v-3.242H0Z" style="fill:#231f20;fill-opacity:1;fill-rule:nonzero;stroke:none" transform="translate(640.894 237.15)"/><path d="M0 0v12.723h3.491V-18.62H0v15.379h-16.051V-18.62h-3.493v31.343h3.493V0Z" style="fill:#231f20;fill-opacity:1;fill-rule:nonzero;stroke:none" transform="translate(672.737 255.77)"/><path d="M0 0h16.254v-3.242H3.492v-9.313h12.392v-3.242H3.492v-12.305h12.762v-3.241H0Z" style="fill:#231f20;fill-opacity:1;fill-rule:nonzero;stroke:none" transform="translate(682.122 268.492)"/><path d="m0 0-5.365-12.551H5.242Zm-6.772-15.797-3.791-8.891h-3.818L.079 8.153l14.098-32.841h-3.869l-3.694 8.891z" style="fill:#231f20;fill-opacity:1;fill-rule:nonzero;stroke:none" transform="translate(730.259 261.838)"/><path d="M0 0h1.082c3.949 0 7.941.747 7.941 5.612 0 5.155-3.781 5.655-7.976 5.655H0Zm0-16.834h-3.491v31.343h4.538c5.946 0 11.469-1.579 11.469-8.647 0-4.824-3.036-8.232-7.855-8.649l9.974-14.047h-4.283L.879-3.078H0Z" style="fill:#231f20;fill-opacity:1;fill-rule:nonzero;stroke:none" transform="translate(752.581 253.983)"/><path d="M0 0h-3.492v28.101h-7.566v3.242H7.643v-3.242H0Z" style="fill:#231f20;fill-opacity:1;fill-rule:nonzero;stroke:none" transform="translate(780.349 237.15)"/><path d="M0 0c-1.249 2.159-2.744 3.403-5.408 3.403-2.78 0-5.191-1.992-5.191-4.864 0-2.699 2.781-3.949 4.9-4.902l2.084-.915c4.072-1.785 7.52-3.823 7.52-8.813 0-5.484-4.405-9.688-9.851-9.688-5.03 0-8.769 3.245-9.772 8.109l3.413.958c.458-3.201 2.912-5.822 6.28-5.822 3.36 0 6.438 2.578 6.438 6.113 0 3.659-2.867 4.902-5.777 6.234l-1.909.828c-3.661 1.663-6.818 3.536-6.818 8.026 0 4.863 4.116 7.981 8.771 7.981 3.491 0 6.447-1.784 8.108-4.864z" style="fill:#231f20;fill-opacity:1;fill-rule:nonzero;stroke:none" transform="translate(805.071 262.384)"/><path d="M0 0c-.145 0-.264-.021-.418.009-1.411.248-2.163.712-3.598.712h-.254c-.092 0-.127.063-.207.063h-3.369c-.101 0-.149-.085-.254-.085-.224 0-.356 0-.572.022-.704.094-1.095.34-1.672.752-.443.322-.738.66-.875 1.113-.013.983.787 1.946 1.715 2.354L.497 3.855C1.179 2.57.607 1.146 0 0m-19.578-1.181a13.76 13.76 0 0 1-.472-1.201c-.319-.098-.65-.192-1.032-.358-1.117-.455-1.386-1.111-2.472-1.664-.76-.407-3.153-1.502-4.023-1.502-.203 0-.291.086-.498.086h-.659c-.422 0-.638.191-1.039.281-.62.141-1.006.166-1.561.467-.474.254-.637.58-.949 1.041-.233.342-.559.365-.888.656-.172.161-.352.169-.494.374-.183.281-.236.521-.482.754-.261.719-.455 1.469-.783 2.153.075 2.942 1.407 5.349 4.195 6.429 2.56 1.625 6.285.311 8.906.537 2.176-2.09 2.483-5.346 2.251-8.053M11.83 16.135c0 .312-.317.363-.484.602-.15.2-.263.376-.342.553-.054.12-.089.237-.15.362-.009.033-.009.063-.027.098-.123.43-.167.691-.291 1.123-.053.202-.097.394-.28.486-.458.226-.8.371-1.161.53-1.399 1-3.034 1.426-4.957 1.257-5.184.137-2.181-4.589-3.342-7.496A1.287 1.287 0 0 0 0 13.386h-.343l-2.454-.518c-.339.032-.518.142-.857.142l-1.839-.28h-.602c-.15 0-.224-.087-.375-.087h-1.177c-.185 0-.283.087-.461.087h-.555c-.594 0-.924.17-1.522.17-1.424 0-2.229.031-3.649 0-.119 0-.172-.085-.291-.085h-.659c-.314 0-.468.123-.748.26-.708.355-1.047.648-1.706 1.092-.947.638-1.544.894-2.472 1.562-.999.709-1.737.976-2.959 1.138-.805.11-1.241.316-2.06.316l-3.179-.281c-.246 0-.39.087-.637.087h-.765c-.159 0-.247.063-.388.088-.236.026-.382.014-.619 0-.828-.078-1.24-.344-2.014-.61-.582-.191-.941-.194-1.5-.398-.22-.085-.193-.321-.374-.46-.364-.265-.62-.344-.959-.632-.395-.354-.756-.331-1.231-.583-.339-.161-.55-.34-.809-.497-.07-.008-.132-.031-.202-.048-.3-.057-.58-.161-.858-.273a1.13 1.13 0 0 1-.492-.216c-.022-.01-.031-.04-.044-.059a6.385 6.385 0 0 1-.91-.629c-.062-.035-.115-.092-.194-.092-.409 0-.664-.216-.893-.542a5.04 5.04 0 0 1-.677-1.297c-.73-.921-1.377-1.902-2.053-2.702a19.172 19.172 0 0 1-1.087-3.2c-.141-.117-.234-.236-.234-.442 0-.139.022-.257.049-.364-.932-4.501-.378-9.383 1.812-13.351 2.871-4.492 7.753-6.667 12.793-7.206 9.296-1.865 13.637 6.974 20.69 10.306 3.33-.314 7.362 1.005 9.45-2.254.19-.57.34-1.131.459-1.69 0-.42 0-.805-.022-1.335 0-.102-.084-.169-.084-.278 0-.159.04-.251.031-.407-.014-.123-.093-.204-.093-.332v-.553c0-.262-.088-.397-.088-.651 0-.383.044-.586.088-.966.053-.464.23-.714.23-1.182v-1.666c0-.346-.044-.577-.128-.919a.507.507 0 0 1 .03-.38c-.083-.488-.189-.982-.295-1.478-.158-.101-.32-.212-.465-.298-.343-.198-.445-.618-.445-1.015l-.241-.48c0-.302-.097-.456-.202-.723-.098-.199-.098-.367-.265-.487-.271-.211.212-.372-.097-.512-.465-.22-.545-.589-.918-.956-.577-.571-.959-1.035-.959-1.861 0-.248-.079-.375-.079-.627 0-.505-.331-.535-.049-.965.549-.817-.233-1.304-.233-2.289 0-.16-.053-.24-.053-.387 0-.347.581-.189.717-.492.15-.316.202-.527.29-.857.009-.061.036-.106.049-.159a21.628 21.628 0 0 1-.193-1.707c.537-1.314 2.009-1.859 3.015-2.783 2.873.145 7.447-.931 8.683 3.092 2.242 9.302 2.708 19.366 3.649 29.296.432 6.139 1.161 13.35-.448 19.355z" style="fill:#231f20;fill-opacity:1;fill-rule:nonzero;stroke:none" transform="translate(435.483 322.707)"/><path d="M0 0v.336c0 .127-.07.199-.07.327v.305c0 .097-.097.132-.097.229v.382c0 .821-.457 1.223-.554 2.034-.035.415-.008.642 0 1.04.009.241.132.362.176.618.079.42.009.666.062 1.106.008.171.088.26.088.442v.252c0 .111-.088.168-.088.284v1.418c0 .611-.15.946-.15 1.553v.724c0 .088-.079.132-.088.22-.07.42-1.047.717-1.716 1.063-.193 1.569-.368 3.158-.615 4.684.115.215.291.332.291.583 0 .221-.158.323-.317.463-.37.363-.765.474-1.239.504l-.088.106h.236c-.114 0-.192.023-.28.046l-.854.97c-2.331.855-4.504-.389-6.429-1.166-1.25-3.095-1.179-7.043-1.091-10.306 1.46-11.389.545-23.402.764-34.561a21.7 21.7 0 0 0-.14-1.267c-.079-.168-.149-.336-.254-.539a33.141 33.141 0 0 0-1.038-1.844c-.168-.256-.466-.334-.466-.644 0-.354.377-.487.377-.849v-.43c0-.7-.316-1.075-.316-1.774 0-.238 0-.366.035-.621.07-.501.44-.792.731-1.117.051-.932.201-1.838.536-2.696.5-.242 1.03-.439 1.566-.611-.16-.4-.406-.761.324-.98.414-.124.537-.545.968-.545.72 0 1.073.338 1.777.545.272.079.456.025.738.083.274.066.414.233.598.399 1.9.186 3.722.885 5.189 2.276 0 5.063 1.513 10.3 1.004 15.303.018.077.035.151.053.24.062.481 0 .761.053 1.237.009.11.087.172.087.292v1.094c0 .181.079.269.088.463.017.3.008.492 0 .8-.009.133-.08.191-.088.315-.052.517.079.813 0 1.327-.026.158-.087.242-.087.394v2.861c0 .634-.142.992-.142 1.634v.947c0 .125-.088.174-.088.288l.651 4.258c0 .989.045 1.561-.141 2.537C-.28-1.786 0-1.213 0 0" style="fill:#231f20;fill-opacity:1;fill-rule:nonzero;stroke:none" transform="translate(466.161 325.007)"/><path d="M0 0c-.088.372-.148.586-.324.927-.177.352-.291.634-.669.774-1.205.44-1.98.384-3.21.804-1.012.335-1.645.356-2.674.575-1.083.234-1.707.414-2.789.55a5.18 5.18 0 0 1-1.134 0c-.247-.022-.379-.091-.633-.091-.494 0-.713.402-1.206.402h-.341c-.133 0-.186.092-.318.092h-.809c-.291 0-.467-.092-.774-.092-.713 0-1.057.548-1.786.548h-.606c-.186 0-.291.071-.485.085-.615.04-.967 0-1.583 0-.721-.137-1.116-.324-1.855-.368-1.909-.106-2.983-.034-4.908-.012-.15 0-.229.088-.378.088h-1.664c-.218 0-.341.087-.553.087h-.377l-2.56.47h-.256c-.123 0-.202.085-.35.085h-.565c-.562 0-.853.141-1.406.141h-.704c-.123 0-.202.088-.344.088h-.518c-.132 0-.202.087-.344.087h-.28c-.423 0-.651.104-1.074.177-.352.05-.562.05-.915.05-.641 0-.994-.147-1.644-.147-.272 0-.431.059-.722.097-.316.028-.509-.097-.826-.038-.95.194-1.521.157-2.498.15-1.311 0-2.066-.031-3.369 0-.403.007-.651-.046-1.028.087l-2.49-.525h-.263c-.819 0-1.293-.136-2.093-.368-.651-.199-.986-.529-1.671-.529h-.494c-.14 0-.219-.07-.368-.072-1.003-.08-1.583.028-2.595-.061-.88-.09-1.328-.385-2.182-.605-.729-.196-1.17-.215-1.891-.409-.791-.186-1.24-.402-2.039-.511-.574-.076-.915-.135-1.425-.404-.247-.128-.344-.345-.635-.345h-.342c-.721 0-1.144-.233-1.751-.615-.272-.144-.473-.197-.659-.419-.449-.503-.756-.743-1.135-1.296-.254-.372-.457-.611-.457-1.071 0-.397.333-.586.686-.777.554-.299.783-.627 1.354-.888.362-.165.677-.137.95-.426.537-.551 1.03-.699 1.777-.84.466-.087.739-.087 1.186-.172.124-.03.177-.107.3-.107.353 0 .545.169.889.254.836.217 1.265.521 2.093.752.238.039.343.223.59.223h.254c.115 0 .167.086.273.086h.307c.309 0 .476.137.791.137h.327c.229 0 .335.093.545.148.501.149.809.152 1.32.294 1.019.275 1.636.24 2.681.313.765.053 1.224.053 2.015.119 1.293.105 1.996.404 3.281.686.607.127.951.314 1.575.314.518 0 .976-.116 1.177-.605.071-.16-.026-.272-.026-.453.018-.353.088-.556.088-.913 0-.404-.368-.562-.721-.753-.597-.348-.941-.548-1.61-.755-.695-.21-1.115-.254-1.829-.372-.299-.048-.457-.147-.766-.147h-.271c-.159 0-.247-.085-.388-.085h-.404c-.317 0-.485-.145-.8-.145h-.256c-.141 0-.211-.073-.353-.086-.79-.055-1.265.042-2.066-.055-.132-.012-.185-.084-.315-.084h-1.787c-1.275 0-1.926-.659-3.218-.659-.326 0-.511-.014-.836-.065-.123-.014-.194-.086-.325-.086h-.255c-.079 0-.123-.053-.194-.053h-.352c-.316 0-.484-.171-.801-.171h-.289c-.265 0-.405-.149-.661-.149h-.289c-.423 0-.651-.144-1.065-.24-.633-.114-.994-.155-1.592-.367-.421-.145-.615-.457-1.082-.457-.21 0-.316-.091-.527-.147-.194-.048-.37-.042-.492-.198-.203-.248-.256-.464-.458-.721-.396-.471-.598-.795-.818-1.382-.097-.302-.221-.479-.221-.802 0-.158.08-.242.08-.387 0-.409-.308-.586-.308-.983 0-.156.098-.222.177-.358.228-.461.545-.624.948-.943.265-.229.291-.455.512-.725.272-.341.526-.429.897-.635.457-.257.765-.408 1.292-.408h.554c1.53 0 2.313.636 3.747 1.185.378.151.519.385.915.523.554.18.879.251 1.443.401.668.185 1.028.461 1.716.461.412 0 .641-.145 1.044-.173.247-.021.406-.021.651 0 .141.006.221.07.352.07h.379c.131 0 .21.103.334.103h.299c.325 0 .501.141.836.141h.334c.141 0 .211.085.36.085h.343l3.431.764c.3-.094.501.013.826 0 .433-.009.678.127 1.118.127h1.96c.089 0 .124.09.23.09.632.029.976-.044 1.609-.035.123 0 .168.088.282.088a91.43 91.43 0 0 0 4.414.025c.282 0 .433-.097.722-.113 1.988-.063 3.113-.084 5.119-.084.342 0 .545.053.889.084.123.02.184.088.315.088.748 0 1.18.107 1.918.191.186.039.282.088.466.088h.291c.158 0 .255.075.414.101.598 0 .948.016 1.539 0 .73-.014 1.108-.213 1.837-.213.141 0 .202.072.335.072.176 0 .256-.12.412-.12h.529c.439 0 .668-.143 1.081-.143h.529c.114 0 .167-.086.28-.086h.405c.792 0 1.204-.316 1.988-.316h.581c.124 0 .201-.091.342-.091h.633c.458 0 .688-.145 1.161-.145.959 0 1.513.083 2.49.06.212 0 .308-.143.518-.143h.256c.132 0 .202-.088.317-.088h1.01c.3 0 .423-.22.582-.46.201-.312.431-.45.484-.807a.764.764 0 0 0 0-.343c-.036-.286-.265-.392-.379-.657-.369-.882-1.258-1-2.208-1.074a6.182 6.182 0 0 0-.923 0c-.731.078-1.125.344-1.873.344h-.942c-.853 0-1.285.301-2.102.46-.343.072-.554.009-.897.063-.228.029-.37.114-.607.114-.315 0-.51.021-.836.061-.131.013-.201.085-.342.085h-.633c-.097 0-.132.081-.22.081h-1.671c-.124 0-.159.095-.274.095-.14 0-.201-.095-.341-.095h-4.055c-.133 0-.212.095-.344.095h-.774c-.106 0-.15.084-.238.084-.421 0-.669-.04-1.081 0-.124.019-.203.061-.317.086-.536.056-.854-.064-1.398-.086-.432-.021-.686.045-1.135.032-.193-.01-.28-.093-.466-.093-.501 0-.782.031-1.292 0-.159-.014-.247-.089-.405-.089h-.968c-.289 0-.44-.084-.722-.084h-1.274c-.114 0-.176-.073-.282-.079-.739-.093-1.161-.049-1.901-.072-.306 0-.473-.058-.773-.075-1.011-.06-1.592.009-2.603-.06-.088 0-.149-.09-.256-.09h-.255l-2.243-.37h-.263l-5.778-1.098h-.264c-.123 0-.167-.087-.283-.087h-.632c-.079 0-.123-.041-.203-.05-.474-.073-.748.009-1.212-.057-1.286-.19-2.025-.318-3.282-.691-.43-.131-.685-.189-1.126-.325-.21-.054-.334-.172-.553-.172-.669 0-1.039-.196-1.716-.196-1.443-.019-2.269 0-3.72-.05-.933-.047-1.521-.27-2.268-.851-.283-.204-.582-.334-.582-.7 0-.15.132-.242.132-.395 0-.67.308-.996.535-1.635.125-.336-.024-.605.142-.916.176-.326.511-.332.721-.635.247-.334.256-.616.344-1.03.079-.378.229-.568.229-.957v-.459c0-.329-.291-.438-.459-.715-.21-.33-.236-.573-.315-.947-.062-.292-.23-.428-.23-.725v-.297c0-.51-.633-.652-.633-1.18 0-.787.282-1.197.405-1.975.017-.193.017-.294.017-.51 0-.349-.167-.536-.167-.889 0-.456.352-.624.511-1.055.123-.268.053-.493.246-.721.299-.356.66-.356 1.055-.629.256-.158.273-.412.555-.519.14-.057.228-.008.369-.057.211-.057.335-.106.518-.19.247-.131.247-.377.493-.5.334-.15.572-.075.924-.168.722-.193 1.143-.312 1.891-.427 1.222-.037 1.935-.09 3.175-.09.202 0 .308.09.519.09h.633c.177 0 .29.08.466.08.694 0 1.02.357 1.697.515.503.123.81.079 1.294.233.404.136.58.351 1.002.457.352.101.626.088.95.273.476.237.73.453 1.232.625.624.209 1.001.19 1.645.307 1.01.207 1.557.581 2.594.523.307-.007.493 0 .8.036.079.004.114.052.203.052h.632l2.103.378h.263c.106 0 .168.084.282.084h.256c.289 0 .457.141.747.141h.897c.466 0 .731.096 1.213.096 1.751 0 2.745.028 4.512-.007.644-.01.968-.367 1.618-.411.714-.021 1.136-.052 1.865-.021.097.008.141.078.256.078h.465c.142 0 .212.094.361.094.528 0 .828-.151 1.355-.238.335-.036.527-.084.871-.084h1.003c.202 0 .289-.074.483-.074h2.998c.291 0 .45-.088.749-.088h1.152c.906 0 1.425-.061 2.34-.137.096-.022.149-.101.254-.101h.414c1.117 0 1.618-.747 2.718-.836.535-.035.844.023 1.389-.022.889-.092 1.442-.19 2.269-.58.942-.436 1.444-.862 2.471-.972.468-.044.748.058 1.215 0 .133-.009.203-.083.334-.083.22 0 .343.022.555 0 .404-.058.65-.115 1.072-.142.458-.04.729-.04 1.196-.04.274 0 .405.124.669.124.553 0 .853.097 1.371.287.467.158.757.21 1.162.492.545.361.704.756 1.231 1.144.729.522.95 1.041 1.329 1.841.351.753.941 1.087.941 1.927 0 .428-.15.66-.37 1.034-.335.571-.562.89-1.038 1.366-.73.735-1.337 1.229-2.384 1.229h-.262c-.133 0-.212.068-.344.091-.492.057-.792.012-1.284.047-.572.049-.853.329-1.426.329-.192 0-.289-.091-.482-.091h-.713c-.141 0-.194-.088-.326-.088a8.56 8.56 0 0 0-1.098 0c-.124.009-.203.088-.335.088h-.669c-.167 0-.246.091-.423.091-.518 0-.808.086-1.318.086-.159 0-.256-.079-.413-.086-.783-.077-1.223-.077-2.015-.125-.501 0-.738.384-1.239.384h-.291c-.15 0-.239.078-.397.078h-.422c-.791 0-1.178.352-1.944.524-.236.045-.359 0-.598 0-.606.013-.941.144-1.53.314-.606.168-.95.409-1.583.409h-.545c-.167 0-.263.054-.431.083-.493.057-.774-.064-1.275 0-.168.017-.265.078-.449.078-.219 0-.343-.04-.545-.031-.15.022-.247.089-.404.089h-.774c-.185 0-.273.087-.458.087-.282 0-.448-.027-.739 0-.141.018-.237.086-.386.086-.476 0-.74-.041-1.215 0-.079.01-.114.058-.202.058h-.545c-.465 0-.739.104-1.205.17-.379.054-.598.089-.985.089-.229 0-.353-.089-.572-.089h-1.257c-.124 0-.195.07-.326.089a4.205 4.205 0 0 1-.519.026c-.361 0-.545-.115-.906-.115h-1.504c-.421 0-.607-.314-1.029-.314-.228 0-.377.086-.616.086h-.43c-.432 0-.66.172-1.1.172-.395 0-.606-.033-.994 0-.159.011-.254.091-.413.091h-.308c-.203 0-.299-.091-.492-.091h-.547c-.175 0-.262-.092-.447-.092h-.247c-.184 0-.28-.054-.466-.08a7.934 7.934 0 0 0-1.196-.086c-.589 0-.915-.154-1.504-.201-.475-.022-.757.035-1.231-.051-.168-.043-.238-.12-.387-.12-.072 0-.098.066-.151.066-.148 0-.227.019-.359 0-1.821-.506-2.754-1.387-4.626-1.387h-1.18c-.149 0-.211.076-.35.076h-.291c-.414 0-.889.163-.889.588v1.055c0 .179-.088.257-.088.439 0 .809.915.894 1.645 1.265.704.34 1.144.597 1.918.597h.271c.317 0 .485.075.801.153.379.08.635.029.985.223.598.346.986.6 1.689.6h2.042c.756 0 1.116.462 1.881.462h1.865c.123 0 .184-.076.315-.076h2.244c.106 0 .149.076.254.076h.406c.071 0 .106.065.167.065h.351c.159 0 .256.079.397.079h.553c.151 0 .23.097.378.097h2.788c.133 0 .203-.097.344-.097h.254l2.278-.539h.318c.114 0 .158-.089.281-.089.175 0 .264.089.448.089.624 0 .977.102 1.601.083.423-.012.65.111 1.065.111h1.124c.714 0 1.092-.305 1.813-.305.836 0 1.311-.072 2.154-.15.106-.018.177-.088.291-.088h.405c.193 0 .289-.08.475-.08h.272c.396 0 .607-.141 1.002-.141h.37c.387 0 .58-.152.959-.152h.395c.185 0 .291-.068.468-.088.694-.092 1.116-.074 1.81-.142.688-.071 1.082-.016 1.751-.167.546-.137.8-.464 1.364-.464h.369c.114 0 .167-.086.273-.086h.668c.141 0 .221-.086.351-.086h.255c.406 0 .625-.141 1.021-.235.801-.187 1.283-.216 2.093-.397.458-.104.712-.231 1.171-.231h.35c.3 0 .467-.127.765-.127.08 0 .106.066.185.066h.467c.071 0 .114.053.193.061.264.025.405.025.67.025.448 0 .668-.312 1.116-.312h.58c.246 0 .388.068.635.136.641.196 1.115.102 1.671.49 1.107.836 1.775 1.687 1.775 3.084 0 .539-.009.858-.175 1.378-.044.147-.167.183-.221.319-.272.514-.458.831-.458 1.411v.605c0 .372.247.517.37.864.256.712.405 1.128.598 1.865.088.307.23.466.23.783v.288c0 .343.096.552.175.885.186.808.29 1.256.545 2.041.124.381.23.597.23.983 0 .405-.142.633-.309 1.004-.28.582-.474.959-1.011 1.303-.44.268-.792.226-1.301.373-.492.14-.74.456-1.267.456-.581 0-.906.008-1.487.06-.598.044-.922.141-1.53.141h-.554c-.097 0-.168.086-.282.086h-.43c-.15 0-.23.084-.37.084-.923.069-1.469-.044-2.393.06-.984.112-1.539.257-2.532.257h-.687c-.174 0-.281.09-.465.09h-.397c-.668 0-1.028.233-1.652.458-.546.2-.915.163-1.487.298-.422.079-.651.229-1.064.229h-.519c-.131 0-.193.075-.317.075h-1.382c-.131 0-.192.088-.315.088h-.739c-.299 0-.467.142-.756.142h-.915c-.141 0-.202.093-.326.093h-2.207c-.51 0-.801.084-1.301.084h-1.241c-.449 0-.704.116-1.161.116-.061 0-.079-.054-.131-.054-.924-.067-1.434 0-2.367 0-.449.013-.685.054-1.144.11-.615.071-1.231.367-1.231.978 0 .379.149.583.254.95.053.242.089.543.344.543h.344c.166 0 .236.097.395.097.114 0 .158-.097.273-.097h2.322c.097 0 .132-.047.203-.064.324-.028.509.017.834 0 .264 0 .405-.077.678-.077h.492c.115 0 .168-.083.273-.083h.836c.088 0 .115-.062.202-.062 2.612-.05 4.089-.05 6.702-.031.194 0 .299.093.492.093h1.347c.105 0 .14-.093.236-.093.599-.037.941 0 1.557-.019.501-.035.792-.088 1.293-.146.342-.057.554-.099.827-.321.168-.121.194-.298.386-.402.265-.178.476-.178.792-.253.458-.12.722-.26 1.223-.26.291 0 .466-.085.766-.085.562 0 .87-.034 1.415-.143.343-.078.529-.236.888-.236h.344c.149 0 .228-.072.378-.072h.264c.15 0 .238-.103.404-.103h2.586c.105 0 .176.103.282.103h.263l3.801.912h.254c.396 0 .607.075.985.192.167.063.344-.007.484.112.334.301.44.562.687.929.219.327.412.498.465.888.035.32.035.512.026.837C.158-.269.035-.179 0 0" style="fill:#231f20;fill-opacity:1;fill-rule:nonzero;stroke:none" transform="translate(551.124 321.8)"/><path d="M0 0a3.71 3.71 0 0 1-.009-.625c-.017-.074-.044-.146-.044-.229 0-.08.044-.115.097-.146.282-1.601 1.451-3.247 2.498-4.655C10.167-9.193 17.705-4.342 24.17-.709c.035.01.061.014.105.023.088.04.175.075.263.106C30.705.999 35.542-2.256 41.057-3.097c3.808-.397 8.689-1.469 11.408 1.393.175.265.324.557.474.86a.583.583 0 0 1 .115.251c.597 1.405.782 3.142-.053 4.468a31.517 31.517 0 0 0-4.223-.167c-.835.58-1.548 1.075-2.725 1.075-.564 0-.88-.194-1.444-.255-.359-.042-.562 0-.913 0l-1.302.481h-.299c-.141 0-.211.1-.352.1-.308 0-.494-.056-.792 0-.079.009-.123.052-.203.052h-.526c-.133 0-.203.092-.335.092h-.263c-.679 0-1.048.246-1.689.428a97.71 97.71 0 0 1-3.66.859c-.765.17-1.204.374-1.996.374-1.232 0-1.883.505-2.947 1.053-.783.572-1.478 1.295-2.163 2.04-.07.176-.142.358-.291.533-.122.147-.263.194-.404.236-1.548 1.719-3.114 3.387-5.559 3.717-1.936-.538-4.099-1.083-5.277-2.784-.616-1.793 1.02-3.184.861-5.042a10.385 10.385 0 0 0-2.145-2.236c-.167-.046-.334-.087-.518-.143-.757-.225-1.162-.544-1.936-.544-.212 0-.316.066-.509.083H7.934c-.107 0-.16-.083-.265-.083h-.315c-.441 0-.669-.203-1.119-.203h-.324c-.203 0-.308-.09-.511-.151-.915-.238-1.389-.569-2.243-.997-.29-.152-.509-.25-.729-.369-.432.044-.871.089-1.277.141a3.616 3.616 0 0 1-.782-.968C.344 1.172.317 1.172.3 1.157c-.158-.123-.405-.136-.405-.345 0-.207.008-.339.026-.539C-.07.167-.026.087 0 0" style="fill:#231f20;fill-opacity:1;fill-rule:nonzero;stroke:none" transform="translate(484.816 334.392)"/><path d="M0 0v.86c0 .752-.756 1.204-.379 1.845.114.2.123.294.123.514 0 .358-.158.486-.438.695-.327.246-.512.503-.915.515-.951.05-.695.097-1.654.076-.203-.001-.308-.076-.52-.076h-.421c-.177 0-.265-.097-.448-.097-1.716-.034-2.693-.012-4.425.028-.079 0-.114.069-.203.069h-2.409c-.44 0-.687-.137-1.117-.237l-1.812-.15c-.721 0-3.528.15-5.128.543a39.024 39.024 0 0 0-.545 2.767c.018.023.026.044.044.064.202.423.256.723.571 1.065.211.242.564.299.564.631 0 .337-.317.411-.476.719-.333.648-.483 1.06-.51 1.788-.035.351 0 .561.018.915.061.69.466 1.006.466 1.696 0 .106-.027.184-.044.278.3.627.694 1.223 1.179 1.755 5.962 2.946 14.107-1.31 18.673 4.422.086 1.318.086 3.329-1.083 4.492a39.18 39.18 0 0 1-2.224.194c-.097.213-.353.31-.6.464-.35.223-.509.435-.887.59-.291.136-.484.124-.799.188-.362.052-.547.169-.898.169-.748 0-1.162-.145-1.891-.145h-1.734c-.246 0-.377.112-.598.112-.193 0-.282-.055-.474-.084-.317-.052-.511.06-.826 0-.406-.063-.582-.314-.994-.314-.124 0-.204.074-.327.074h-1.424c-.247 0-.379-.132-.616-.223-.484-.172-.782-.229-1.285-.229-.306 0-.482.085-.8.085h-3.649c-.133 0-.203-.085-.344-.085h-.457c-.176 0-.273.085-.44.085-1.248.056-1.97-.009-3.219.031-.783.025-1.16.524-1.952.524-.414 0-.651-.02-1.065-.064-.141-.01-.212-.084-.351-.084h-.485c-.827 0-1.256-.407-2.084-.407-.361 0-.553.11-.915.11h-.396c-.465 0-.721-.229-1.187-.229h-.37c-.21 0-.306-.084-.509-.084-1.266 0-1.794-.882-2.999-1.204-.58-.154-.967-.158-1.495-.421-.431-.216-.484-.579-.748-.963-.123-.175-.431-.124-.431-.346 0-.171.203-.171.343-.263.325-.182.387-.478.457-.859.115-.565.528-.752.977-1.097.106-.07.211-.156.3-.233a2.61 2.61 0 0 1 .517-1.416c3.704-1.764 4.838-4.67 5.234-7.911-.028-.052-.063-.106-.089-.156-.105-.176-.324-.227-.324-.428 0-.281.289-.331.413-.582a1.59 1.59 0 0 0 .158-.665V8.104c0-.246-.158-.372-.158-.614 0-.309.237-.443.237-.739v-.42c0-.72-.65-.999-.65-1.705 0-.407-.044-.626-.132-1.004-.08-.272-.3-.376-.3-.651 0-.187.202-.209.3-.362.281-.522.641-.665.941-1.18.255-.429.412-.802.703-1.095.422-1.233 1.047-2.37 2.032-3.362 8.453-4.347 18.831-2.326 27.899-1.633 1.09.933 2.629 2.255 2.023 4.186A3.823 3.823 0 0 0 0 0" style="fill:#231f20;fill-opacity:1;fill-rule:nonzero;stroke:none" transform="translate(595.664 314.484)"/><path d="M0 0c-1.046.645-2.119.849-3.228.873-.271.163-.509.281-.879.281h-.976c-.132 0 .122-.079 0-.079h-.369c-.3 0-.089-.3-.344-.379C-6.288.648-6.78.588-7.282.549c-2.146-.995-2.067-2.625-1.856-4.365-.184-.15-.519-.277-.519-.481 0-.287.114-.448.114-.74 0-.449-.176-.696-.176-1.15v-.799c0-.552-.871-.743-1.381-.928-.193-.07-.219-.255-.343-.426-.175-.219-.333-.292-.58-.433-.862-.491-1.424-.742-2.418-.8-1.046-.071-1.769-.061-2.647-.049-.079.033-.185.063-.273.088-2.639.924-1.557 3.88-3.026 5.581-1.161 3.72-5.268 3.641-8.374 3.1-1.953-.449-2.462-1.511-2.488-2.824-.281-.373-.439-.734-.439-1.257 0-.407.087-.642.087-1.056 0-.492-.087-.774-.087-1.257 0-.526.262-.792.262-1.331 0-.367-.175-.565-.175-.937 0-.386.316-.565.316-.956l-.651-.462c0-.342-.254-.503-.254-.845 0-.347.254-.506.254-.841v-.328c0-.18.088-.286.088-.456.027-.401.009-.639-.017-1.043-.009-.078-.071-.11-.071-.194v-.866c0-.137-.079-.194-.079-.332 0-.426.167-.646.167-1.075 0-.225-.088-.372-.017-.58.062-.256.229-.359.344-.6.157-.331.139-.566.139-.925v-.376c0-.248.141-.374.141-.636v-.433c0-.442-.079-.708-.22-1.112-.096-.216-.236-.321-.236-.55 0-.668.456-.992.456-1.642 0-.483-.553-.636-.553-1.124 0-.242.22-.321.359-.533.15-.258.23-.445.23-.735 0-.522-.492-.717-.492-1.233 0-.169.114-.236.202-.368.157-.266.166-.463.166-.765 0-.295-.088-.451-.166-.738-.044-.159-.202-.218-.202-.389 0-.429.333-.583.545-.965.211-.362.167-.649.282-1.035.105-.336.236-.533.236-.878v-1.62c0-.207-.08-.323-.08-.526 0-.101.08-.167.08-.283v-.724c0-.332.15-.513.15-.844 0-.586-.325-.889-.325-1.457 0-.25.14-.357.175-.599.027-.193.027-.315.027-.519 0-.288-.175-.426-.175-.725v-.942c0-1-1.233-1.133-1.462-2.101-.201-.888-.712-1.321-.712-2.233 0-.186.053-.292.053-.481 0-.592.361-.893.124-1.432-.212-.489-.168-.819-.291-1.354-.149-.733-.369-1.118-.369-1.866 0-.312.141-.476.141-.797 0-.129-.08-.184-.08-.331 0-.379-.088-.585-.088-.971 0-.418.195-.625.195-1.043 0-.18-.08-.268-.08-.457 0-.229.211-.295.377-.463.388-.395.66-.558 1.1-.891.309-.256.571-.436.845-.617.739-1.614 2.657-2.08 4.214-2.783 2.171.615 4.96-.388 6.428 1.933.158 11.859.695 25.262 1.627 37.126.308 1.468 1.935 2.158 3.412 1.935 1.742-.233 3.475-.467 4.645-2.151.035-.077.061-.134.104-.204.036-.133.053-.271.088-.398v-1.086c0-.498.388-.737.388-1.237 0-.256-.149-.379-.149-.635 0-.319.211-.442.37-.718.113-.17.174-.322.236-.476.062-.391.114-.783.159-1.195 0-.087 0-.168-.018-.283-.15-.795.08-1.243-.079-2.03.043-.185.124-.27.124-.441 0-.543-.344-.814-.344-1.357 0-.241 0-.368.017-.599.044-.354-.06-.592.115-.893.431-.725.387-1.065.387-1.897v-.645c0-.567-.158-.809-.158-1.381v-1.175c0-.358.264-.481.432-.778.183-.302.059-.593.157-.894-.045-2.843-.201-5.69-.404-8.463-.106-.114-.202-.216-.265-.399-.185-.454-.176-.763-.377-1.2-.247-.547-.722-.718-.801-1.292a7.105 7.105 0 0 1-.061-1.04c0-1.153.606-1.733.606-2.891 0-.314-.149-.496-.149-.822v-.351c0-.33-.035-.546.088-.84a.276.276 0 0 1 .203-.167 6.556 6.556 0 0 0-.054-.585c.554-5.576 6.13-2.09 9.234-3.095 1.787.54 1.083 2.557 1.927 3.64.554 13.417 2.402 26.977 1.698 40.231C1.469-10.392 3.404-4.11 0 0" style="fill:#231f20;fill-opacity:1;fill-rule:nonzero;stroke:none" transform="translate(633.844 343.304)"/><path d="M0 0c-1.169 4.958.545 11.47-3.649 15.04-.951.451-1.918.591-2.913.55a2.565 2.565 0 0 1-.861.152c-.325 0-.501-.118-.818-.118h-.28c-.591 0-.863-.399-1.303-.743a26.243 26.243 0 0 1-2.19-.931 16.68 16.68 0 0 1-.132-.931c-.298-.276-.465-.504-.792-.784-.174-.168-.465-.203-.465-.459 0-.306.175-.456.175-.775 0-.42-.228-.633-.228-1.062 0-.24.088-.367.088-.613V8.057c0-.172-.088-.253-.088-.433 0-.493.386-.73.386-1.228 0-.815-.616-1.143-.853-1.939-.122-.423.37-.644.194-1.06-.141-.338-.159-.583-.351-.89-.177-.323-.247-.536-.423-.874-.142-.25-.316-.389-.316-.681 0-.133.089-.197.089-.334 0-.229.017-.389-.089-.587-.088-.158-.238-.22-.238-.401 0-.433.327-.629.327-1.05 0-.203-.089-.291-.089-.494 0-.953.625-1.415.625-2.362 0-1.053-.536-1.591-.536-2.653 0-.596-.072-.95-.283-1.498-.079-.201-.264-.28-.264-.493l-.66-1.925c0-.354.071-.626.353-.838.439-.338.913-.443 1.063-.972.088-.287.088-.557.353-.696.21-.114.386-.046.598-.171.202-.123.167-.009.316-.194.098-.13.21-.13.343-.207.273-.147-.51-.182-.298-.409.147-.158.21-.318.412-.427.062-.024.123-.033.186-.066.456-1.5.887-3.166 2.603-3.924 2.875-.699 6.666-1.009 8.917.85-1.09 5.592 1.909 6.632 5.551 7.14h.264c.123 0 .184-.086.326-.086h.412c.738 0 1.082-.511 1.821-.511.22 0 .362.017.571.049.388.062.292.195.625.415.184.095.352.121.493.302a.867.867 0 0 1 .168.504c1.75.389 3.306 1.057 4.264 2.495C14.804 2.014 3.572-4.814 0 0" style="fill:#231f20;fill-opacity:1;fill-rule:nonzero;stroke:none" transform="translate(714.98 330.747)"/><path d="M0 0c.721 1.175.141 1.812-.185 2.689 0 .073 0 .162-.008.256-.009.201-.81.808-.81 1.015 0 .352.053.634-.141.908-.342.448-.668.598-1.125.925-1.109.788-1.83 1.15-3.139 1.547-1.268.389-2.025.53-3.343.783-.712.133-1.091.459-1.83.459h-.377c-.115 0-.168.084-.282.084h-.492c-.115 0-.176.075-.291.089-.563.093-.915.021-1.495.083-.326.023-.494.173-.827.173-.405 0-.615.138-1.02.138-.23 0-.362-.019-.598 0-.212.04-.335.096-.554.096-1.1 0-1.707.226-2.815.226h-1.522c-.14 0-.211.088-.352.088h-.975c-.132 0-.194.076-.317.076h-.66c-.308 0-.467.156-.774.156h-.519c-.422 0-.652.104-1.064.104h-2.797c-.124 0-.194-.078-.307-.078-.423 0-.661.021-1.082 0-.107-.001-.159-.085-.265-.085-.061 0-.105 0-.168-.013-4.888.304-9.797.323-14.686.076-.951.087-1.566-.12-2.577-.004-.124.004-.212.091-.371.091h-2.779c-.423 0-.659-.091-1.064-.15a1.46 1.46 0 0 0-.589 0c-.282.031-.432-.136-.721-.136h-.423c-.157 0-.236-.093-.386-.093-.607 0-.951-.041-1.531-.146a43.055 43.055 0 0 1-2.859-.541c-.624-.14-.95-.37-1.583-.37h-.403c-.195 0-.309-.102-.512-.102h-.659c-.642 0-.316-.293-.915-.508-.545-.204-.878-.276-1.416-.527-.298-.129-.413-.328-.712-.417-.239-.084-.395-.052-.633-.131-.361-.116-.449-.437-.81-.565-.449-.166-.738-.215-1.196-.319-.21-.044-.369-.018-.527-.141-.203-.179-.23-.38-.318-.637-.157-.416-.342-.643-.342-1.088 0-.694.554-.972 1.117-1.355.686-.464.695-1.189 1.408-1.59.677-.38 1.142-.439 1.881-.683.484-.167.792-.35 1.259-.387-.009 0 0 .007.043.007.519.076.756.284 1.257.431.195.052.353.091.494.14.042-.015.078-.038.104-.051 6.677 0 12.015.463 18.462 1.073 1.776.633 3.862 1.171 5.805.55.836.209 1.68.338 2.524.415h.036c6.402.561 12.717-2.249 19.217-2.659 1.637-.977 2.226-2.112 2.261-3.332-.272-.119-.572-.189-.898-.355-.615-.355.59-1.564-.017-1.936-.342-.23.317-.359-.009-.589-.236-.163-.457-.313-.457-.611V-7.3c0-.43-.141-.677-.362-1.056-.174-.337.239-.869-.07-1.071-.35-.247 0 0-.342-.279v-.399c0-.361-.229-.533-.229-.889 0-.131.061-.202.061-.339 0-.106-.061-.163-.061-.266 0-.278.335-2.574.528-2.759.44-.405.14.3.625-.058.342-.237.254-1.375.562-1.521 3.237-2.132 7.053.075 10.67.52C-.158-12.322 0-10.812.378-7.013c.343 1.68-.21 2.816-.21 4.195 0 .879.474 1.82 0 2.558C0 0 .168-.172 0 0" style="fill:#231f20;fill-opacity:1;fill-rule:nonzero;stroke:none" transform="translate(718.358 298.14)"/><path d="M0 0c1.532.119 3.186.429 4.602.211.385-.33.703-.76.967-1.296.254-.525.642-.774.642-1.353 0-.489-.58-.646-.58-1.145 0-.306.192-.468.192-.77 0-.148-.106-.184-.192-.275-.256-.277-.503-.361-.714-.666-.289-.385-.378-.742-.81-.951-.906-.434-1.53-.446-2.531-.539a3.9 3.9 0 0 0-.591-.036c-.131 0-.201.085-.341.085H0c-.333 0-.501.12-.825.169-.221.053-.397.022-.6.053a6.372 6.372 0 0 0-.606.625C-2.172-3.569-1.942-1.479 0 0m-16.411 1.238h.518c.141 0 .22-.079.371-.079h.394c.186 0 .265-.095.44-.095h.326c.554 0 1.565-.294 1.856-.785.123-.217-.308-.321-.308-.595v-.432c0-.38.361-.553.07-.8-.589-.539-.801-.731-1.099-1.477-.096-.183-.247-.278-.247-.491v-.762c0-.561-.369-.68-.369-1.234 0-.207.149-.302.149-.52 0-.315-.149-.481-.149-.804 0-.139.097-.218.097-.356v-.345c0-.473.475-.56.799-.9.318-.316-.112-.709.142-1.088.211-.332.432-.451.738-.689.485-.376.151-.652.618-.913.333-.61.72-1.184 1.125-1.738 3.641-3.032 7.678-5.194 12.867-4.735 6.509 1.485 15.884 1.703 17.591 9.468.545 3.631-1.003 6.653-.845 9.757 1.944.701 4.098-.466 4.714 2.245.626 1.863.308 4.044-1.389 5.357-1.725-.229-3.457-.335-5.171-.27a.85.85 0 0 1-.405.113h-.3c-.113 0-.157.079-.28.079-.37 0-.58-.035-.942 0-.159.013-.238.097-.387.097-.308 0-.554.012-.81.034-1.46.265-2.884.685-4.265 1.335.545 3.1-2.7 4.737-4.722 6.122-.775.163-1.557.251-2.349.273-.388.266-.705.479-1.24.479-.238 0-.343-.112-.563-.16-.756-.182-1.197-.354-1.838-.809-.528-.369-.872-.696-1.513-.696-.44 0-.703 0-1.136-.074-.58-.12-.764-.58-1.362-.699-.387-.081-.694-.204-.862-.571-.053-.115-.203-.14-.203-.275v-.373c0-.449-.13-.705-.13-1.178 0-.503.306-.752.306-1.265 0-.309-.105-.468-.202-.764-.166-.592-.378-1.043-.94-1.24-.555-.202-.898-.202-1.47-.315-.175-.031-.289.044-.466.025-.326-.034-.501-.138-.827-.138h-.607c-.202 0-.29-.087-.493-.087a9.322 9.322 0 0 1-1.81-.159c-1.145-.174-1.839-.351-2.816-.961-.562-.379-.844-.663-1.292-1.162-.317-.332-.405-.629-.783-.89-.176-.119-.405-.159-.405-.366 0-.213.14-.318.14-.517 0-.386-.026-.588 0-.963.063-.648.563-.864.845-1.473.238-.504.318-1.141.889-1.141" style="fill:#231f20;fill-opacity:1;fill-rule:nonzero;stroke:none" transform="translate(667.327 328.502)"/><path d="M0 0c3.025-.461 6.359 1.605 8.061-2.193.026-.137.022-.255.026-.386a.797.797 0 0 0-.075-.263c-.185-.289-.057-.775-.383-.934-.391-.345-.672-.513-1.085-.911-.648-.773-1.396-.907-2.459-.907-.361 0-.559.079-.919.079-.615 0-.963.13-1.565.254-.225.056-.445-.014-.576.172-.137.207-.511.159-.59.383-.453.346-.426.325-.849.849-.334.141-.686.639-.686 1.011 0 .197-.062.458-.141.731A6.076 6.076 0 0 0 0 0m-13.317-6.673v-.14c0-.895.48-1.36 1.043-2 .114-.173.215-.366.335-.535.043-.123.087-.261.21-.377a.457.457 0 0 1 .198-.122c3.285-4.017 9.152-4.361 13.465-4.642 5.889.075 11.163 3.407 14.258 8.378.049.474.079.961.093 1.458.109.159.174.32.174.548 0 .413-.092.677-.188 1.046-.065 1.396-.312 2.812-.795 4.062.013.301.013.58 0 .956-.014.64-.665.764-.999 1.326-.361.602-.73.855-1.329 1.231-.501.314-.909.542-1.323.765-1.623 1.985-3.532 2.728-5.594 2.825-.69.241-1.148.583-1.953.583-.958-.027-1.5 0-2.457-.057-.502-.028-.796-.15-1.294-.09-.862.112-1.42.044-2.22-.305-.532-.254-.717-.61-1.231-.865-.559-.288-.972-.213-1.505-.521-.638-.39-.918-.757-1.548-1.147-.026-.022-.048-.031-.066-.056a13.747 13.747 0 0 0-.927-.07 13.743 13.743 0 0 1-3.259-2.3c-.167-.014-.334-.02-.498-.135-.324-.259-.395-.544-.743-.754-.277-.173-.611-.261-.611-.59 0-.198.098-.332.168-.476a11.797 11.797 0 0 1-.673-1.106c-.251-.231-.454-.439-.643-.796-.316-.611-.487-1.022-.487-1.721 0-.332-.089-.507-.089-.831a2.1 2.1 0 0 1 .089-.607 7.848 7.848 0 0 1 .399-2.935" style="fill:#231f20;fill-opacity:1;fill-rule:nonzero;stroke:none" transform="translate(342.825 341.594)"/><path d="M0 0a.375.375 0 0 0-.084.075c-.048.378-.11.752-.207 1.097-1.045 1.163-2.624 1.451-4.132 1.319-.111.013-.181.054-.287.094-.655.025-1.029.007-1.684.056-.154.004-.243.079-.401.079-1.39.075-.834.119-2.225.279-.192.022-.29.076-.474.076-.611.021-1.087.031-1.562.039-.875.098-1.746.176-2.621.23-.326.125-.584.335-1.003.335h-.263c-.15 0-.224.09-.374.09h-.4c-.233 0-.361.087-.595.087-.703 0-1.111.005-1.819.062-.185.006-.286.071-.467.072-.549.092-.853.044-1.411.07-.576.03-.889-.153-1.465-.153-.427 0-.756-.146-1.077-.25-.453.022-.911.022-1.359.044-.572.098-1.025.122-1.675.305-.642.175-.99.368-1.663.368-.339 0-.527-.363-.866-.331-.146.017-.212.097-.348.097h-.316c-.304 0-.498-.08-.699-.129-.247.023-.481.071-.726.084-.37.086-.656.098-1.078.204-.365.092-.571.194-.95.194h-.457c-.185 0-.277.093-.466.093h-.915c-.105 0-.153-.093-.263-.093h-1.804c-.088 0-.128-.044-.207-.044h-1.442c-.145 0-.225-.084-.368-.093-.494-.025-.774-.004-1.268 0-.316.009-.478.115-.787.115-.216 0-.351-.054-.563-.022-.396.036-.624.028-1.016.085-.452.052-.716-.37-1.177-.335-.172.022-.278.087-.454.1-.88.032-1.376.32-2.243.32-.721-.046-1.135-.046-1.847-.126-.629-.062-.99-.155-1.61-.25-.954.122-1.473-.474-2.295-.758a70.778 70.778 0 0 1-1.983-.26h-1.71c-.296 0-.472-.076-.761-.076-.71 0-1.065.085-1.737-.14-.722-.236-2.134-.316-2.812-.656-.487-.238-.875-.442-1.266-.624a90.526 90.526 0 0 1-3.307-.793c-.216.051-.414.135-.694.135l-.225-.331c-.242 0-.391-.092-.558-.207-.646-.17-1.298-.341-1.94-.533a7.152 7.152 0 0 1-1.191-.808 1.63 1.63 0 0 1-.577-.242c-1.028-.646-1.509-1.346-1.864-2.521-.171-.558-.291-.558-.291-1.138 0-.215.084-.308.084-.494v-.382c0-.623.725-.707 1.297-.972.238-.113.251-.339.458-.486.308-.225.589-.211.968-.211.315 0 .509.025.818.09.144 0 .263 0 .382-.007 2.068-.658 4.526.432 6.914 1.363.236 0 .395.02.646.058 1.248.189 2.801.503 3.997 1.019 5.914-.256 10.915 3.207 16.883 1.168.43-.543.311-1.339-.163-1.871h-.357c-.135 0-.214-.092-.351-.092h-.545c-.37 0-.559-.142-.924-.142h-.818c-.092 0-.123-.053-.207-.053h-.482l-3.001-.3h-1.667c-.355 0-.544-.107-.897-.165-.558-.114-.887-.124-1.438-.287-.413-.127-.659-.257-1.094-.257h-.485c-.127 0-.193-.08-.32-.08-.361 0-.572.084-.914.015-1.096-.216-1.703-.389-2.785-.628-.426.07-.655-.191-1.076-.296-1.043-.245-1.628-.474-2.679-.712a10.604 10.604 0 0 1-1.416-.435 20.771 20.771 0 0 1-2.208-.807.677.677 0 0 0-.171-.05c-.625-.231-1.025-.197-1.671-.35-.897-.223-1.413-.462-2.13-1.038-.567-.447-.813-.791-1.349-1.301-.225-.198-.483-.198-.629-.455-.185-.297-.207-.508-.352-.839-.137-.31-.373-.479-.373-.844 0-.172.009-.275.026-.447.066-.451.422-.589.664-.978.251-.395.334-.712.721-.972.366-.244.668-.232 1.091-.341.277-.075.431-.185.721-.185.541 0 .84-.085 1.372-.085.357 0 .545.173.902.173h.286c.36 0 .545.144.892.237.343.085.568.041.888.201.721.326 1.078.693 1.693 1.065h.004c.041.019.067.041.098.058.057.034.088.058.145.083.756.386 1.261.426 2.062.712 1.012.376 1.649.597 2.617.824.884.162 1.764.312 2.603.573 8.523 1.158 17.208 1.243 25.414.854 3.795-.854 8.37.235 11.694-1.711-.409-.712-.11-1.672-.379-2.405-.998-.01-3.509-.045-4.015 0l-.079.003c-.932.141-1.455.459-2.406.459h-.439c-.109 0-.176.08-.286.092-.145.014-.216-.012-.373 0-.202.007-.317.069-.511.082-1.35.048-2.119.004-3.457.058-.126 0-.192.092-.311.092h-.58c-.805 0-1.228.402-2.037.402-.089 0-.141-.069-.234-.069a13.5 13.5 0 0 1-1.636-.088c-.227-.006-.355-.078-.576-.078h-.522c-.186 0-.291-.087-.472-.087-.948 0-1.477-.142-2.432-.142h-1.64c-.126 0-.188-.088-.316-.088h-1.755c-.158 0-.242-.082-.399-.082-.062 0-.106-.134-.15-.214-.251-.013-.498-.045-.748-.057h-3.307l-3.39-.611h-.296c-.126 0-.205-.089-.342-.089h-.52c-.174 0-.258-.056-.43-.075-.452-.06-.725 0-1.179-.06-.4-.049-.642.038-1.037-.031-1.742-.281-2.833-.498-4.333-1.009-2.22-.338-4.405-.695-6.522-1.04-.421-.277-.905-.567-1.34-.911-.463 0-.756-.058-1.25-.135-.254-.047-.386-.143-.655-.143h-.316c-.466 0-.694-.218-1.126-.381-.461-.16-.783-.216-1.147-.545-.432-.396-.546-.818-.546-1.4v-.261c0-.145-.088-.208-.088-.35 0-.379.29-.52.488-.839.098-.155.058-.302.146-.452.17-.311.448-.335.69-.577.32-.312.325-.659.66-.958.337-.295.897-.272.897-.732 0-.733-.564-1.036-1.122-1.512-.287-.231-.334-.51-.351-.887-.018-.334-.194-.48-.313-.782-.54-1.338-1.486-1.918-1.552-3.36-.036-.595.048-.595.092-1.188.014-.234.259-.285.466-.4.317-.176.357-.436.542-.743.307-.511.695-.648 1.239-.871.853-.335 1.359-.515 2.247-.72.211-.049.326.183.545.183h.344c.114 0 .074.088.189.088h.289c.141 0 .23-.088.37-.088h.313c.188 0 .281-.084.474-.084h.12c.708-.166 1.455-.218 2.171-.316 8.946-.485 18.572 1.451 27.815 1.68.062-.008.137-.013.216-.013h.295c.181 0 .269-.088.457-.088h1.724c.159 0 .247.088.406.088h.373c3.016-.088 5.985-.402 8.857-1.126 5.58.158 11.544-1.627 16.201 1.398 3.095.621 2.322 4.103 2.247 6.127-1.055 1.083-2.362 1.455-3.751 1.463-.062.023-.11.028-.168.041-.456.11-.707.261-1.177.261h-1.158c-.456 0-.694-.23-1.152-.23h-.254c-.115 0-.168-.085-.278-.085-.145 0-.234.013-.386 0-.185-.023-.291-.092-.472-.092-.813 0-1.266-.297-2.062-.196a1.565 1.565 0 0 1-.546 0c-.228-.021-.377-.055-.54-.195-.053-.047-.088-.088-.132-.132-.646.058-1.306.116-1.956.167-.031 0-.049.011-.076.011-1.166.286-1.82.442-2.989.671-.379.068-.516.08-.898.08-.396 0-.621.053-1.016.083-.366-.009-.615-.331-.906-.533-.607.031-1.213.04-1.834.057-.049.027-.102.032-.149.061-.533.234-.801.537-1.368.537-.365 0-.576 0-.942-.015-.338-.03-.523-.087-.858-.098-1.669-.032-2.61-.009-4.286.033-.146 0-.216.08-.366.08h-.293c-.366 0-.547.168-.898.264-.37.107-.612-.246-1.007-.207-.326.035-.523-.36-.854-.321-.171.014-.259.08-.425.08h-4.645c-.184 0-.272.082-.457.082h-1.522c-.185 0-.282.092-.462.092-.184 0-.285-.066-.461-.092-.278-.043-.45.058-.722 0a4.39 4.39 0 0 0-1.157-.137c-1.195-.011-1.867.034-3.073 0-.404 0-.633.186-1.034.186h-.378c-.809 0-1.276-.381-1.909-.758h-.752c-.245.305-.483.815-.787.758-.461-.095-.743 0-1.208.053a2.659 2.659 0 0 0-.682.17c-.366.705-.392 1.654-.018 2.353 1.086 2.088 3.8 1.16 5.348 1.387 13.178 1.479 27.199 0 39.601-3.097 1.464.863 3.711.394 4.415 2.56l.615 9.152c0 .142.035.274.079.408.026.051.066.079.102.131.439.633 1.024.621 1.666 1.035.527.342.832.765.832 1.392 0 .369-.353.492-.695.625-.119.048-.225.085-.34.127a1.82 1.82 0 0 1-.017.462c-2.481 3.249-7.208 3.098-10.844 3.408-2.467.233-4.881.207-7.203.389-.256.128-.454.279-.792.279h-.339c-.409 0-1.517.107-2.441.235-.681.169-1.354.366-2.018.631a.505.505 0 0 0-.149.359c-.274.194-.415.42-.454.667 2.019 3.418 6.342.28 9.205 1.32 3.887-1.626 7.247-1.178 10.989-.806.317 0 .624.019 1.016-.03.088-.006.137-.077.225-.077h2.392c1.2 0 1.637-.713 2.651-.076.269.178.529.13.718.376.166.218.104.438.254.666.379.551 1.153.583 1.153 1.245 0 .284-.066.435-.048.704C.946-1.26.461-.356 0 0" style="fill:#231f20;fill-opacity:1;fill-rule:nonzero;stroke:none" transform="translate(384.418 321.752)"/><path d="M0 0c-1.799 2.56-2.247 6.951-5.629 7.933-.079.269-.15.777-.247.777-1.27-.168-2.651.332-3.843-.137a6.646 6.646 0 0 1-.827-.402c-.242-.138-.444-.181-.58-.407-.211-.379-.225-.666-.291-1.088-.031-.261-.026-.449-.026-.654a6.205 6.205 0 0 1-.567-.677c.136-.455.242-.925.37-1.393l-.005-.04c0-.424-.074-.656-.079-1.085-.035-1.203.04-1.877.018-3.067 0-.135-.084-.189-.084-.309 0-.962.488-1.444.488-2.402 0-.22-.005-.367-.115-.546.018-.577 0-.918.031-1.492.049-.782.291-1.185.573-1.909.152-.377.337-1.328.615-2.034.36-.912.629-.711.739-1.257.062-.314.293-.852.364-1.019 0-.028.009-.052.009-.078-.018-.106-.075-.166-.075-.269 0-.495.176-.76.176-1.251v-.26c0-.262.11-.391.168-.642.092-.42.101-.658.233-1.06.245-.743.176-1.222.452-2.106-.11-.734-.544-1.013-.729-1.013h-.348c-.378 0-.559.173-.918.279-.735.244-.717.314-1.462.492-.219.055-.505.197-.721.197l-.509.086c-.282 0-.203-.028-.488-.069a1.437 1.437 0 0 0-.577 0c-1.416.217-1.499.289-2.862.752-.836.275-1.984.56-2.982.866a4.416 4.416 0 0 0-1.918 1.233c-.101.24-.593-.41-.738-.144-.141.257-1.799.428-1.997.581-.166.128-.422-.094-.717-.36-.009.011-.009.019-.018.028-2.321 4.563-3.25 9.68-4.802 14.57-1.758 2.466-2.374 5.837-5.228 7.584-.013.1-.013.201-.048.305-.111.348-.406.423-.686.632-.441.327-.722.618-1.276.618h-1.588c-.223 0-.329-.144-.492-.269a3.448 3.448 0 0 1-.813-.893c-.305-.442-.664-.525-1.087-.859-.461-.366-.444-.88-.95-1.148-.537-.31-.927-1.111-1.235-1.624-.585-.969-.743-1.689-1.588-2.431-.335-.298-.629-.325-.946-.63-.172-.157-.185-.323-.233-.543-.082-.394-.523-.61-.523-.996 0-1.282-.651-1.968-1.469-2.956-.431-.505-.523-.902-.893-1.451-.251-.386-.456-.583-.835-.842-.19-.127.576-.174.545-.401-.045-.261-.031-.415-.031-.684 0-.542.022-.962-.342-1.364-.287-.297-.602-.263-.955-.491-.22-.137-.185-.38-.256-.628-.174-.574-.602-.745-.895-1.268-.198-.367-.238-.615-.309-1.042-.048-.204-.15-.324-.15-.542v-.247c0-.203-.127-.288-.171-.485-.141-.567-.382-.876-.519-1.455-.193-.774-.932-1.247-1.34-1.928-.569-.959-.595-1.655-.863-2.735-.114-.467-.361-.671-.546-1.117-.131-.332-.285-.486-.426-.807-.203-.431-.181-.731-.379-1.148-.337-.741-.628-1.126-.862-1.9-.285-.934-.196-1.539-.545-2.442-.251-.645-.624-.913-1.155-1.333-.41-.324-.648-.539-.889-.998-.132-.262.263-.322.184-.583-.25-.837-.25-1.344-.457-2.186-.163-.644-1.109-.943-1.345-1.577-.318-.879-.419-1.41-.686-2.312-.11-.367-.278-.567-.379-.94-.11-.427-.053-.687-.203-1.091-.267-.779-.615-1.131-.976-1.879-.232-.487.027-.596-.241-1.06-.216-.409-.163-.709-.26-1.147-.137-.617-.373-.963-.373-1.578v-.305c0-.321.272-.426.461-.685.401-.559.669-.84 1.003-1.442.044-.076.088-.136.128-.203.598-1.367 1.824-2.502 3.056-3.334 2.168.238 4.108-1.772 6.117-.299 4.345 3.795 3.412 10.383 5.585 15.348 0 4.879 2.951 8.523 5.04 12.551-1.323 4.807 3.021 7.278 4.182 11.158 1.156 1.075 1.943.717 2.633 0 .19-.355.309-.744.309-1.16 0-.216.031-.326.031-.528 0-.108-.058-.167-.058-.262 0-.416-.03-.659-.03-1.072 0-.304.303-.374.513-.57.221-.202.287-.38.433-.641.14-.23.303-.34.346-.601.172-.852.775-1.141 1.065-1.954.172-.468.374-.695.55-1.145.193-.486.193-.797.316-1.301.141-.574.313-.883.406-1.463.077-.532.026-.837.083-1.348.034-.333.276-.443.43-.727.387-.699.391-1.086.484-1.874.088-.8-.009-1.264.057-2.073.022-.266.088-.43.088-.719v-.718c0-.113.084-.175.084-.28l.321-.348c0-.312.148-.473.148-.784v-.605c0-.515-.315-.777-.315-1.309 0-.49.159-.755.225-1.256.03-.177.03-.292.03-.474 0-.941-.533-1.15-.533-2.087v-.705c0-.944.19-1.426.19-2.368v-.913c0-.451.114-.691.233-1.123.21-.803.298-1.279.603-2.048.215-.554.171-.937.482-1.433.177-.278.384-.357.669-.519.401-.242.573-.537 1.034-.608.198-.035.348-.057.506-.07a.888.888 0 0 0 .053-.096c2.484-1.785 5.59-.242 7.837.84 2.55 5.436.074 11.56-1.087 16.747 3.715 3.339 8.742-.446 13.619.542-.097-1.082-.229-3.116-.229-3.116-.057-.273.194-.734.04-1.102-.157-.37.149-.778.149-.778s.419-.445.419-1.003c0-.626-.18-1.304-.18-1.304l.114-1.133v-.578c0-.51.492-.691.492-1.198 0-.35-.172-.548-.172-.912 0-.35-.153-.536-.153-.905 0-1.185-.866-1.731-.866-2.916v-.424c0-.217-.123-.323-.176-.521-.124-.554-.287-.836-.516-1.35-.131-.295-.32-.445-.32-.767 0-.202.976-.311 1.012-.514.157-1.091.091-2.787.984-3.43.127-.092.229-.162.339-.254.269-.555.69-1.07 1.323-1.509 2.718-2.165 6.672-.616 9.772-.229 1.241 7.129 1.241 14.88 0 22.008C2.714-19.139 2.015-9.305 0 0" style="fill:#231f20;fill-opacity:1;fill-rule:nonzero;stroke:none" transform="translate(292.92 334.315)"/><path d="M0 0zm-29.693 2.043zm2.066.593-.984-.031-1.047.005-.018.026-.3.053-2.259-.022-.633-.076-.274-.062c-.008.011-.385.011-.385.011l-.433-.086-.191-.02-.335-.022-.274-.073h-.053l-1.274-.136-2.287-.499-.528-.2-.696-.156h-.333l-.299-.07-.106-.016-3.395-.165c-.369.005-3.597-.893-3.703-1.061l-.193-.168-.395-.163-.766-.35c.01.003-.299-.215-.299-.215l-.265-.152c.027-.01-.492-.11-.492-.11l-.447-.345-.186-.164c-.026-.016-.764-.212-.764-.212l-.186-.071-.096-.032-.44-.17c-.026-.005-.326-.585-.326-.585l-.018-.136c0 .018-.105-.25-.105-.25l-1.134-2.355c.026-.689.448-1.708.845-1.996l.227-.799.467-.601.713-.835 1.091-.509.466-.13.263-.131.845-.217c.113 0 1.442-.128 1.442-.128l.369.154c-.027.016.061.068.061.068l6.185.706c5.355-.045 4.044.755 9.436 1.37 1.328.55 4.556 2.045 6.077 1.494l.053-.025 3.457.357c1.9.186 5.357.656 9.64-.366 2.075-.517 7.96-1.082 10.158-1.251 1.029-.69 2.56-1.878 2.631-2.92l.132-1.684c-.097-1.197-.432 1.741-1.839-2.49l.273-2.171.079-.362-1.329-1.125-.175-.803.079.724.052-.405-.959-1.091.044-.646-.139-.5c-.079-.691-.423-.966-.45-1.05.239-1.709-.07-.548-.105-1.559 0-.347-.985-2.322-1.055-2.441.272-.332.765-.181.765-.588l-.097-.469c0 .007-.061-.103-.061-.103l-.335-.535.511-.191-.625-.423.017-.114.15-1.974-.08-.33.476-.438.026-.079c-.008-.028.475.017.475.017 0-.349-.246.194-.097.082l.097-.082.686-.897c-.018-.032.546.117.633.075.59-.802 4.698-.739 5.62-.67 2.164.125 3.51 1.341 5.437 5.795 1.116 2.357 1.601 6.46 2.128 11.54 0 0 .492 4.394.474 4.432.705.901-.218 2.852-.237 4.089-.009.875-.097 1.432-.484 2.153l-.018.01.018-.01-.456.564c0 .061.132-.127.132-.127.044-.101.044.144.044.144 0-.032-.423.498-.423.498l-.309.307.018.135-.377.64-.554.888-.194.198c-.933.725-1.1 1.095-2.199 1.489L4.09-.092l-.159.023-.535.185-1.013.22-.317-.004c.018.028-.227.093-.227.093s-.335-.013-.37-.017L1.46.413l-.036.043-.158.022-.712.061-.492.018-.256.07-.484.087-.211.15-.527.061-.185-.006-.238.006-.132.012-.36.075-2.094.36-.914.226-.361.132-.545-.23-.59.433-2.472.399c0 .021-.271.093-.271.093l-.501-.013-.265.051-.37.226-.447.009-.836.115-2.277-.03-.256-.054-.309.013-.65-.031-.167-.075a.638.638 0 0 0-.14-.031 92.61 92.61 0 0 1-11.831.031" style="fill:#231f20;fill-opacity:1;fill-rule:nonzero;stroke:none" transform="translate(790.586 338.476)"/><path d="M0 0c-.053.141-.089.285-.133.43C-.15.459-.15.491-.159.521c-.439 1.5-.782 3.157-2.146 3.971-.149.291-.211.304-.421.646-.291.469-.203.208-.546.637-.15.181-.159.18-.386.198-.186.023-.414.152-.6.173-.412.045-.694.533-1.107.578-.379.041-.598-.021-.968.024-.149.015-.22-.063-.344-.046-.315.032-.465.196-.773.23-.748.081-1.152-.1-1.891-.165-.546-.06-.879.014-1.38-.143-.564-.178-.749.676-1.338.743-.185.021-.289.082-.474.101-.906.104-1.389-.358-2.295-.46-.994-.124-1.453-.006-2.445.102l-.942.105c-.3.035-.458-.128-.739-.096-.202.026-.325.039-.511.089-.245.056-.333.209-.58.239-.571.064-.897-.225-1.486-.16-.326.035-.483.203-.818.243l-.721.075c-.115.018-.176.103-.273.115-.201.022-.325-.045-.527-.025l-1.047.117c-.343.039.352-.43-.08-.305-.254.076.845-.164.512.082-.362.254-.477.598-.907.647-.168.017-.247-.127-.405-.154-.29-.048.467-.339.167-.309-.3.039-.492.07-.738.256-.124.103-.107-.534-.282-.517-.501.06-2.26-.23-3.281.697-1.01.93-1.987 1.597-1.987 1.597l-.009.32-.061.256v.072l-.035.393-.089.171v.048l-.035-.261c-.062.774-1.372 1.616-1.434 2.279v.165l-.035.105-.053.445c0 .4.731 1.123.731 1.123l.246 1.571.008.784-.105.183v.018c-.088.448-.026.577-.721.875 0 0-.212.075-.37.151-.026.278-.606 4.161-.624 4.378-.009.044.07.09.07.09l.211.521-.37.629c-.527.468-1.02.564-1.45.607 0 .036.018.13.018.13h-.151c-.105.137-.906.95-.906.95l-.062.024c-2.207.778-3.579-.077-5.417-.785l-1.03-.409-.053-.121c-1.371-3.116-1.133-7.052-1.062-10.233.659-4.879-.607-4.928-.757-5.146-.141-.218-.747-.522-1.425-.738-.677-.218-1.671-.218-1.671-.218s-2.401-.402-3.13 1.594c-.248.672-.248.672-.204 1.781.16 4.228.299 3.382-.131 7.023-.088.114-1.17 2.313-1.17 2.313-.792 1.777-1.697 3.765-3.87 4.636l.017.107c-.061.306-.324-.014-.65.027 0-.009-1.46.186-1.46.186-.739.128-.027-.045-.774-.186l-.08.054-.562-.275-1.126-.358c-.15-.097-.677-.486-.677-.486l.044-.151.123-.673.097-.423c-.044.043-.793-.315-.793-.315l-.104-.428-.15-1.168-.15-1.173c0 .018-.096-.233-.096-.233l.096-1.035.088-.822c-.008-.004-.008-.045-.008-.102-.327-.847-.415-1.892-.423-3.015 0-.028-.008-.055-.008-.085 0-.027.008-.048.008-.071.008-.956.052-1.962.052-2.95l-.694-.639-.035-.105c.017-.004-.08-1.041-.08-1.041s.396-.486.273-1.077c-.123-.593.221-2.019.221-2.019s-.124-.415-.573-.324c-.342.063-.695.298-.695.298.018.018-.632-.228-.632-.228-.307-.104-.624-.026-.624-.026s-8.013-1.236-10.625-2.05c-2.605-.813-4.786-3.344-4.891-3.531v.127l.017-.039.23-.918.844-.819.052-.475-.096-.356.801-.022.808-.308.212-.396c.009-.005.062-.237.062-.237l.174.08 1.012-.397c.026-.088-.606-.176-.536-.26.325-.382 1.328-.716 1.751-1.006.28-.176 0 0 .307-.115.14-.061.238-.013.396-.061.219-.062.351-.119.554-.207.273-.142.273-.408.527-.54.361-.155.158-.536.537-.638.775-.212 0 0 .801-.128 1.327-.039.8 0 2.128 0 .22 0 .344.098.562.098 0 0 1.162.584 1.356.584.289 0 .809.008 1.027.088l.036.044.529.084 2.664.096 2.023.832 2.093-.207.65.176c.009 0 0 0 0 0l.291.25c.379-.018 1.18-.119 1.18-.119l.73-.303 2.611.256c.563.17 1.02.298 1.724.24-.018.009.967.063.967.063l.16.03.685.009c.053-.009 3.466.074 3.466.074l.236.005.274.053c.035.013.026.044.026.044l.282-.018.474.093.352.057.985.013 1.311.075 1.478.004 3.51-.017.791-.185.94-.23c.026-.012.423-.017.423-.017l1.759-.026.192.088.485.018.29.048.123.022 1.179.167.986.254c.008-.009.262-.048.262-.048l.712-.069 1.585-.581.324-.063 3.07-.324 1.355-.498 2.198-.236s1.161.606 2.164.531c.581-.039.721-.373 1.301-.426.959-.096 1.505.078 2.385-.339 1.02-.469 1.723-.047 2.831-.163.501-.048.634-.826 1.145-.884.139-.018.218-.092.368-.092.229 0 .37.026.589 0 .441-.067.704-.122 1.153-.153.501-.04.792-.04 1.292-.04.221 0 .37.062.547.097.245-.004.035.009.035.009.053.003.088.02.148.02.211 0 1.391-.187 1.391-.187.07.026.132.044.192.061l.898.018c.009.009 2.472.179 2.472.179l1.52 1.343c.836.54 1.022 1.551 1.471 2.326.044.088.465.752.465.752.317.373.616.778.625 1.428 0 .036-.018.067-.027.102z" style="fill:#231f20;fill-opacity:1;fill-rule:nonzero;stroke:none" transform="translate(808.871 291.791)"/></g></svg>